<svg xmlns="http://www.w3.org/2000/svg" width="860" height="560" viewBox="0 0 860 560" fill="none">
  <defs>
    <linearGradient id="bg" x1="0" y1="0" x2="1" y2="1">
      <stop offset="0%" stop-color="#0f172a"/>
      <stop offset="100%" stop-color="#1e293b"/>
    </linearGradient>
    <linearGradient id="glow" x1="0" y1="0" x2="1" y2="1">
      <stop offset="0%" stop-color="#38bdf8"/>
      <stop offset="100%" stop-color="#6366f1"/>
    </linearGradient>
  </defs>
  <rect width="860" height="560" rx="36" fill="url(#bg)"/>
  <circle cx="690" cy="120" r="90" fill="#1f2a44"/>
  <circle cx="700" cy="130" r="60" fill="#0b1220"/>
  <path d="M120 420c120-140 260-210 420-210 70 0 140 10 210 30" stroke="url(#glow)" stroke-width="10" stroke-linecap="round"/>
  <rect x="90" y="120" width="260" height="140" rx="18" fill="#111827" stroke="#334155" stroke-width="2"/>
  <rect x="120" y="150" width="200" height="16" rx="8" fill="#1f2937"/>
  <rect x="120" y="180" width="140" height="12" rx="6" fill="#334155"/>
  <rect x="120" y="205" width="180" height="12" rx="6" fill="#334155"/>
  <rect x="470" y="270" width="300" height="170" rx="20" fill="#0b1220" stroke="#334155" stroke-width="2"/>
  <rect x="500" y="300" width="210" height="14" rx="7" fill="#1f2937"/>
  <rect x="500" y="330" width="160" height="12" rx="6" fill="#334155"/>
  <rect x="500" y="355" width="190" height="12" rx="6" fill="#334155"/>
  <circle cx="460" cy="200" r="16" fill="#38bdf8"/>
  <circle cx="520" cy="220" r="10" fill="#6366f1"/>
  <circle cx="580" cy="200" r="8" fill="#38bdf8"/>
</svg>
